<svg width="275" height="535" viewBox="0 0 275 535" fill="none" xmlns="http://www.w3.org/2000/svg">
<path fill-rule="evenodd" clip-rule="evenodd" d="M0 516.65C17.4119 513 24.2309 517.153 32.5816 522.24C37.0123 524.938 41.8743 527.9 48.9785 530.097C76.5833 538.637 108.355 535.648 122.418 501.489C136.481 467.33 143.251 458.79 226.587 450.25C271.856 445.611 263.793 384.904 255.248 320.556C248.062 266.445 240.534 209.76 264.088 181.673C287.028 154.319 270.32 143.817 246.039 128.556C225.47 115.628 199.467 99.284 187.523 66.3861C166.12 7.42997 134.636 26.1136 109.994 40.7368C93.1838 50.7124 79.5579 58.7983 74.4886 39.0584C64.1924 -1.03557 36.981 -4.04227 0 2.95035V516.65Z" fill="#9D2F00"/>
</svg>
