<svg width="231" height="121" viewBox="0 0 231 121" fill="none" xmlns="http://www.w3.org/2000/svg">
<path d="M227.372 80.3277V81.5434H220.049V98.4547H216.745L214.134 101.24V110.127H211.712V94.6304H202.952V97.1945H200.434L198.334 99.4494V106.324H196.948V96.8414L195.816 95.6257V93.2381H187.82V95.6494H183.223V101.287H177.587V111.257H176.108V104.907H174.399V104.001H173.544V101.547H167.169V88.1536H157.001V94.5866H146.327V105.351H145.541V88.3294H134.683V107.96H133.805V106.147H128.63V107.827H126.737V114.172H126.062V103.915L123.543 100.533L121.556 103.805H117.028L115.187 51.4122H115.718C115.926 51.4187 116.134 51.3848 116.328 51.3127C116.523 51.2406 116.7 51.1316 116.849 50.9924C117.198 50.8758 117.499 50.6572 117.711 50.3675C117.922 50.0778 118.033 49.7317 118.028 49.3784C118.023 49.1274 117.968 48.8796 117.866 48.6486C118.206 47.937 118.394 47.1672 118.418 46.3849C118.441 45.6026 118.301 44.8237 118.004 44.0944C117.882 43.8176 117.71 43.5634 117.496 43.343C117.382 43.2495 117.258 43.1679 117.126 43.0997C117.153 42.9612 117.168 42.8208 117.173 42.6799C117.177 42.2726 117.039 41.8757 116.78 41.5525C116.657 41.3921 116.497 41.2608 116.313 41.1688C116.128 41.0769 115.925 41.0267 115.717 41.0221H114.977C115.025 40.7147 115.048 40.4043 115.046 40.0935C115.053 39.6623 115.007 39.2318 114.908 38.8111C114.87 38.6413 114.808 38.4775 114.723 38.3245C114.688 38.2638 114.649 38.2049 114.608 38.148L113.984 24.3311C114.178 24.2062 114.338 24.0387 114.45 23.8426C114.563 23.6465 114.625 23.4274 114.631 23.2037C114.62 22.9365 114.533 22.6773 114.378 22.4549C114.223 22.2324 114.006 22.0554 113.753 21.9435L113.081 0.0588379H111.626L111.048 21.9471C110.797 22.0642 110.581 22.2421 110.423 22.463C110.266 22.684 110.171 22.9405 110.148 23.2073V23.2295C110.159 23.4688 110.23 23.702 110.354 23.9097C110.479 24.1174 110.654 24.2934 110.864 24.423L110.657 38.13C110.465 38.3609 110.337 38.6348 110.287 38.9259C110.209 39.3193 110.17 39.7189 110.171 40.1193C110.17 40.4301 110.193 40.7405 110.24 41.048H109.501C109.293 41.0525 109.089 41.1027 108.905 41.1947C108.721 41.2866 108.561 41.4179 108.438 41.5783C108.179 41.9015 108.041 42.2985 108.045 42.7057C108.048 42.8467 108.063 42.9872 108.092 43.1256C107.96 43.1937 107.836 43.2753 107.722 43.3688C107.052 44.1923 106.723 45.2234 106.798 46.2645C106.766 47.0998 106.956 47.9292 107.352 48.6744C107.25 48.9055 107.195 49.1533 107.19 49.4043C107.184 49.7576 107.295 50.1036 107.507 50.3933C107.718 50.683 108.02 50.9016 108.368 51.0182C108.674 51.2942 109.08 51.4449 109.5 51.4381H110.424L108.249 108.716H103.444V111.922L101.18 114.353H99.5625V106.531L97.4625 104.276H91.8023V112.942H91.248V110.731H84.4785V104.1H81.2903V102.397H77.9903V103.901H76.0268V109.069C71.9767 107.084 67.5007 106.025 62.9505 105.974C56.385 106.068 50.0631 108.369 45.0915 112.473V109.069H36.6563V119.946H35.6865V105.131H32.3355L31.5503 104.291H26.3063V102.589L25.2435 101.462V99.3403H24.1575L23.3258 98.4562H17.781V103.607L15.681 105.862V119.325H14.5695V116.915H13.3913V99.3389H11.2913V98.322H10.3418V97.6588H9.6255V96.9957H5.0745V99.1659H3.7575V112.651H0.661499V113.558H4.70475V100.069H6.02175V97.9021H8.67825V98.5652H9.37125V99.2283H10.3185V100.242H12.444V117.817H13.6223V120.227H16.6485V106.211L18.774 103.915V99.3389H22.9365L23.7683 100.223H24.3225V101.77L25.3815 102.898V105.175H31.1565L31.9418 106.015H34.7603V120.827H37.6253V109.95H44.1405V114.46L44.949 113.774C47.883 111.254 54.2595 106.833 62.9693 106.855C67.6302 106.914 72.2058 108.06 76.2998 110.193L76.9928 110.546V104.799H78.9615V103.296H80.3475V104.998H83.5358V111.63H90.3053V113.84H92.754V105.175H97.0515L98.6228 106.855V115.256H101.623L104.418 112.249V109.618H109.2L111.441 50.5058H109.523C109.437 50.5141 109.35 50.5024 109.27 50.4717C109.189 50.4409 109.118 50.3921 109.061 50.3293L108.946 50.1965L108.761 50.152C108.591 50.1068 108.441 50.0081 108.337 49.8719C108.232 49.7356 108.178 49.5697 108.184 49.4007C108.191 49.2276 108.247 49.0596 108.346 48.9141L108.53 48.6486L108.323 48.383C107.941 47.7375 107.757 47.002 107.792 46.261C107.784 45.649 107.893 45.041 108.115 44.4668C108.175 44.298 108.278 44.1461 108.415 44.0248C108.507 43.9365 108.554 43.9365 108.577 43.9365H109.686L109.178 43.2289C109.069 43.0716 109.013 42.8868 109.016 42.6986C109.001 42.4986 109.067 42.3011 109.2 42.146C109.232 42.0965 109.276 42.0548 109.328 42.0242C109.38 41.9936 109.439 41.9748 109.5 41.9694H111.51L111.302 41.3723C111.183 40.97 111.128 40.5525 111.14 40.1344C111.135 39.763 111.173 39.3922 111.256 39.0292C111.279 38.98 111.295 38.9278 111.302 38.8742H111.602L111.833 23.8862L111.556 23.7534C111.509 23.7311 111.487 23.7089 111.44 23.6874H111.509L111.116 23.1133C111.17 23.0016 111.25 22.9036 111.35 22.8268C111.451 22.7501 111.568 22.6968 111.694 22.6712L111.994 22.5607L112.364 8.01467L112.802 22.5607L113.102 22.6712C113.518 22.8262 113.68 23.0688 113.68 23.2238C113.68 23.3565 113.564 23.5553 113.264 23.7103L113.01 23.8431L113.68 38.7429L113.912 38.8118C114.063 39.2304 114.126 39.6737 114.096 40.1157C114.108 40.5339 114.053 40.9513 113.934 41.3537L113.726 41.9508H115.736C115.798 41.9537 115.857 41.9714 115.91 42.0022C115.962 42.0331 116.006 42.0761 116.036 42.1273C116.162 42.2859 116.227 42.4809 116.221 42.6799C116.22 42.8677 116.164 43.0514 116.059 43.2102L115.55 43.9178H116.687C116.71 43.9178 116.756 43.9178 116.849 44.0061C117.322 44.6581 117.542 45.4477 117.473 46.2387C117.507 46.9798 117.323 47.7152 116.942 48.3608L116.734 48.6263L116.918 48.8918C117.027 49.0326 117.084 49.2036 117.08 49.3784C117.09 49.5508 117.038 49.7212 116.933 49.8617C116.828 50.0022 116.676 50.1046 116.503 50.152L116.318 50.1965L116.203 50.3293C116.143 50.3877 116.071 50.4336 115.991 50.464C115.912 50.4944 115.826 50.5086 115.741 50.5058H114.241L116.135 104.711H122.142L123.662 102.213L125.14 104.202V115.079H127.727V108.734H129.622V107.077H132.902V108.889H135.677V89.3026H144.641V106.324H147.341V95.5597H158.015V89.126H166.265V102.522H172.64V104.932H173.495V105.84H175.182V112.185H178.578V102.213H184.215V96.5759H188.813V94.1661H194.912V96.0011L196.043 97.2168V107.253H199.343V99.7816L200.915 98.1016H203.941V95.5375H210.779V111.034H215.123V101.594L217.202 99.3618H221.036V82.4497H228.36V81.2341H230.994V80.3277H227.372Z" fill="white"/>
</svg>
